<svg width="117" height="193" viewBox="0 0 117 193" fill="none" xmlns="http://www.w3.org/2000/svg">
<path d="M73.1359 193L66.2036 148.184L106.685 168.625L102.329 171.789L68.6321 153.775L76.0673 190.87L73.1359 193Z" fill="#816854"/>
<path d="M116.03 139.863L71.2644 132.607L103.215 100.425L104.879 105.544L77.3331 132.026L114.91 136.417L116.03 139.863Z" fill="#716154"/>
<path d="M78.7489 82.6488L58.0144 122.981L37.2809 82.6488H42.6642L59.3376 117.029L75.1254 82.6488H78.7489Z" fill="#BE8659"/>
<path d="M12.8141 100.425L44.7653 132.608L0 139.863L1.66321 134.744L39.5135 129.51L11.6951 103.871L12.8141 100.425Z" fill="#B07F58"/>
<path d="M9.34521 168.625L49.8264 148.183L42.8939 193L38.5385 189.836L45.2579 152.221L12.2768 170.755L9.34521 168.625Z" fill="#977356"/>
<path d="M27.08 13.8254V15.8972L19.934 15.2221V14.501L27.08 13.8256V13.8254ZM17.911 31.6196H14.0813V0H28.9779V1.98354L19.266 0.947211H17.911V31.6196Z" fill="#FEFEFE"/>
<path d="M41.234 31.6201H37.54V0.000366211H41.234V31.6201Z" fill="#FEFEFE"/>
<path d="M65.754 27.3392L78.309 0.000854492H81.1894L64.7023 32.0717L48.2151 0.000854492H52.4957L65.754 27.3392Z" fill="#FEFEFE"/>
<path d="M100.051 13.8254V15.8972L92.4526 15.2221V14.501L100.051 13.8256V13.8254ZM101.949 31.6196H86.6006V0H101.949V1.98354L91.7853 0.947211H90.4297V30.6734H91.7853L101.949 29.636V31.6196Z" fill="#FEFEFE"/>
<path d="M20.4915 44.3721H22.0915C22.2775 44.3721 22.4512 44.3393 22.6112 44.2732C22.772 44.2076 22.9114 44.1167 23.0284 44.0005C23.1461 43.8847 23.2379 43.7504 23.304 43.5978C23.3693 43.444 23.4021 43.2793 23.4021 43.1021C23.4021 42.9282 23.3693 42.7646 23.304 42.6122C23.2379 42.4588 23.1461 42.3249 23.0284 42.2087C22.9114 42.0925 22.772 42.0017 22.6112 41.9354C22.4512 41.8697 22.2775 41.8371 22.0915 41.8371H20.4915V44.3719V44.3721ZM23.966 47.3292H23.4019L21.9946 44.7935H20.4915V47.3292H20.0242V41.4157H22.0915C22.3479 41.4157 22.5857 41.4594 22.8038 41.5461C23.0227 41.6332 23.2116 41.7529 23.3701 41.9058C23.5294 42.0592 23.6529 42.2393 23.7416 42.4471C23.8301 42.6545 23.8744 42.8732 23.8744 43.1023C23.8744 43.4539 23.8011 43.7376 23.6541 43.9524C23.5075 44.1678 23.3453 44.3356 23.1687 44.4547C22.9609 44.5922 22.7268 44.6896 22.4672 44.7479L23.966 47.329V47.3292Z" fill="#BE8659"/>
<path d="M31.6181 46.9069V47.3287H27.9553V41.4152H31.5214V41.837H28.4235V44.0421H31.2881V44.464H28.4235V46.9069H31.6181Z" fill="#BE8659"/>
<path d="M35.4199 42.8684C35.4199 42.6674 35.462 42.4758 35.5455 42.2958C35.6297 42.1155 35.7511 41.9561 35.9104 41.819C36.0689 41.6816 36.2615 41.5719 36.4876 41.491C36.7137 41.4103 36.9673 41.3697 37.2488 41.3697C37.4938 41.3697 37.7219 41.4134 37.9342 41.4997C38.1467 41.5869 38.3327 41.7052 38.4931 41.8551C38.6539 42.0048 38.7804 42.1785 38.874 42.3756C38.967 42.5725 39.0192 42.7842 39.0317 43.0101H38.5644C38.5397 42.659 38.4087 42.3684 38.1703 42.137C37.9319 41.9068 37.6245 41.7912 37.2488 41.7912C37.035 41.7912 36.8439 41.8212 36.6759 41.8808C36.5079 41.9401 36.3654 42.0194 36.2492 42.1192C36.133 42.2188 36.0443 42.3335 35.9819 42.4652C35.9186 42.5966 35.8872 42.7311 35.8872 42.8684C35.8872 43.1376 35.9671 43.3462 36.1256 43.4947C36.2849 43.6427 36.4847 43.7635 36.726 43.8565C36.9673 43.9497 37.2274 44.0323 37.5052 44.1035C37.7837 44.1754 38.0432 44.2746 38.2845 44.3996C38.5258 44.5253 38.727 44.6895 38.8878 44.8922C39.0477 45.0957 39.1284 45.3756 39.1284 45.7331C39.1284 45.9717 39.0853 46.1914 38.9997 46.391C38.9141 46.5916 38.7902 46.7632 38.6282 46.9072C38.4668 47.0503 38.2693 47.1645 38.0373 47.2482C37.8046 47.3324 37.5424 47.3745 37.2488 47.3745C36.955 47.3745 36.6927 47.3324 36.4601 47.2482C36.2283 47.1647 36.0299 47.0476 35.8648 46.8979C35.6997 46.748 35.5712 46.569 35.4796 46.3612C35.388 46.1534 35.3359 45.9298 35.324 45.6877H35.7958C35.8445 46.0632 35.9927 46.3686 36.2406 46.6018C36.4876 46.8359 36.8242 46.953 37.2488 46.953C37.6981 46.953 38.0447 46.839 38.2894 46.6115C38.5338 46.3838 38.6557 46.0908 38.6557 45.7331C38.6557 45.4526 38.5767 45.2318 38.4173 45.0711C38.2588 44.9105 38.0584 44.7809 37.8169 44.6813C37.5757 44.5815 37.3163 44.4967 37.0379 44.4247C36.7595 44.353 36.4999 44.2575 36.2587 44.1382C36.0174 44.0193 35.8168 43.8623 35.6583 43.6688C35.4989 43.474 35.4199 43.2081 35.4199 42.8684Z" fill="#BE8659"/>
<path d="M42.4122 41.4152H46.5421V41.837H44.7136V47.3287H44.2409V41.837H42.4122V41.4152Z" fill="#BE8659"/>
<path d="M51.6598 42.1674L50.4356 45.3117H52.8786L51.6598 42.1674ZM54.1443 47.329H53.631L53.0211 45.7333H50.2982L49.6883 47.329H49.1709L51.4715 41.4157H51.8472L54.1443 47.329Z" fill="#BE8659"/>
<path d="M59.5872 47.374C59.2695 47.374 58.9802 47.3231 58.7205 47.2207C58.4611 47.1182 58.2388 46.9699 58.0542 46.7759C57.8687 46.5819 57.7268 46.3449 57.6275 46.0657C57.5277 45.786 57.4784 45.472 57.4784 45.1236V41.4152H57.9457V45.1236C57.9457 45.7131 58.0962 46.1654 58.3979 46.4808C58.6989 46.7948 59.095 46.9527 59.5872 46.9527C60.082 46.9527 60.4804 46.7942 60.7814 46.478C61.0822 46.1617 61.2327 45.7102 61.2327 45.1236V41.4152H61.7003V45.1236C61.7003 45.4747 61.6508 45.7897 61.5512 46.0679C61.4514 46.3457 61.3097 46.5819 61.1251 46.7759C60.9399 46.9699 60.7167 47.1184 60.4558 47.2207C60.195 47.3231 59.9048 47.374 59.5872 47.374Z" fill="#BE8659"/>
<path d="M66.4832 44.3721H68.0832C68.2692 44.3721 68.4429 44.3393 68.6037 44.2732C68.7637 44.2076 68.9031 44.1167 69.0201 44.0005C69.1378 43.8847 69.2296 43.7504 69.2957 43.5978C69.361 43.444 69.3938 43.2793 69.3938 43.1021C69.3938 42.9282 69.361 42.7646 69.2957 42.6122C69.2296 42.4588 69.1378 42.3249 69.0201 42.2087C68.9031 42.0925 68.7637 42.0017 68.6037 41.9354C68.4429 41.8697 68.2692 41.8371 68.0832 41.8371H66.4832V44.3719V44.3721ZM69.9577 47.3292H69.3936L67.9863 44.7935H66.4832V47.3292H66.0159V41.4157H68.0832C68.3396 41.4157 68.5774 41.4594 68.7955 41.5461C69.0144 41.6332 69.2033 41.7529 69.3618 41.9058C69.5211 42.0592 69.6446 42.2393 69.7333 42.4471C69.8218 42.6545 69.8661 42.8732 69.8661 43.1023C69.8661 43.4539 69.7928 43.7376 69.6458 43.9524C69.4992 44.1678 69.337 44.3356 69.1604 44.4547C68.9526 44.5922 68.7185 44.6896 68.4587 44.7479L69.9577 47.329V47.3292Z" fill="#BE8659"/>
<path d="M75.6389 42.1674L74.4147 45.3117H76.8578L75.6389 42.1674ZM78.1234 47.329H77.6101L77.0003 45.7333H74.2773L73.6675 47.329H73.15L75.4506 41.4157H75.8264L78.1234 47.329Z" fill="#BE8659"/>
<path d="M85.8674 41.4152V47.3287H85.4459L82.2046 42.3043V47.3287H81.7373V41.4152H82.1589L85.4001 46.4344V41.4152H85.8674Z" fill="#BE8659"/>
<path d="M89.6692 41.4152H93.7993V41.837H91.9704V47.3287H91.4979V41.837H89.6692V41.4152Z" fill="#BE8659"/>
</svg>
